<svg width="156" height="156" viewBox="0 0 156 156" fill="none" xmlns="http://www.w3.org/2000/svg">
<path d="M106.392 78H136.5V107.25C136.5 112.422 134.446 117.382 130.789 121.039C127.132 124.696 122.172 126.75 117 126.75H39C33.8283 126.75 28.8684 124.696 25.2114 121.039C21.5545 117.382 19.5 112.422 19.5 107.25V61.7857L75.6893 92.04C76.3995 92.4223 77.1934 92.6224 78 92.6224C78.8066 92.6224 79.6005 92.4223 80.3108 92.04L106.392 78ZM78.8288 29.25C79.4723 31.0635 80.4668 32.721 81.7245 34.125C79.3261 36.8063 78.0001 40.2775 78 43.875C78 47.619 79.404 51.0413 81.7245 53.625C80.1366 55.4 79.0062 57.5359 78.4315 59.8472C77.8569 62.1584 77.8553 64.575 78.4271 66.887C78.9988 69.199 80.1265 71.3363 81.7122 73.1133C83.2979 74.8903 85.2936 76.2532 87.5257 77.0835L78 82.212L19.5 50.7195V48.75C19.5 43.5783 21.5545 38.6184 25.2114 34.9614C28.8684 31.3045 33.8283 29.25 39 29.25H78.8288ZM92.625 19.5C91.3321 19.5 90.0921 20.0136 89.1778 20.9279C88.2636 21.8421 87.75 23.0821 87.75 24.375C87.75 25.6679 88.2636 26.9079 89.1778 27.8221C90.0921 28.7364 91.3321 29.25 92.625 29.25H141.375C142.668 29.25 143.908 28.7364 144.822 27.8221C145.736 26.9079 146.25 25.6679 146.25 24.375C146.25 23.0821 145.736 21.8421 144.822 20.9279C143.908 20.0136 142.668 19.5 141.375 19.5H92.625ZM92.625 39C91.3321 39 90.0921 39.5136 89.1778 40.4279C88.2636 41.3421 87.75 42.5821 87.75 43.875C87.75 45.1679 88.2636 46.4079 89.1778 47.3221C90.0921 48.2364 91.3321 48.75 92.625 48.75H141.375C142.668 48.75 143.908 48.2364 144.822 47.3221C145.736 46.4079 146.25 45.1679 146.25 43.875C146.25 42.5821 145.736 41.3421 144.822 40.4279C143.908 39.5136 142.668 39 141.375 39H92.625ZM92.625 58.5C91.3321 58.5 90.0921 59.0136 89.1778 59.9279C88.2636 60.8421 87.75 62.0821 87.75 63.375C87.75 64.6679 88.2636 65.9079 89.1778 66.8221C90.0921 67.7364 91.3321 68.25 92.625 68.25H141.375C142.668 68.25 143.908 67.7364 144.822 66.8221C145.736 65.9079 146.25 64.6679 146.25 63.375C146.25 62.0821 145.736 60.8421 144.822 59.9279C143.908 59.0136 142.668 58.5 141.375 58.5H92.625Z" fill="#64C88A"/>
</svg>
