<svg width="156" height="156" viewBox="0 0 156 156" fill="none" xmlns="http://www.w3.org/2000/svg">
<path d="M78 19.5C49.27 19.5 26 31.135 26 45.5C26 59.865 49.27 71.5 78 71.5C106.73 71.5 130 59.865 130 45.5C130 31.135 106.73 19.5 78 19.5ZM26 58.5V78C26 92.365 49.27 104 78 104C106.73 104 130 92.365 130 78V58.5C130 72.865 106.73 84.5 78 84.5C49.27 84.5 26 72.865 26 58.5ZM26 91V110.5C26 124.865 49.27 136.5 78 136.5C106.73 136.5 130 124.865 130 110.5V91C130 105.365 106.73 117 78 117C49.27 117 26 105.365 26 91Z" fill="#64C88A"/>
</svg>
