<svg width="156" height="156" viewBox="0 0 156 156" fill="none" xmlns="http://www.w3.org/2000/svg">
<path d="M78 59.3379C80.5898 59.3379 83.002 59.8203 85.2363 60.7852C87.4707 61.75 89.4512 63.0957 91.1777 64.8223C92.9043 66.5488 94.2246 68.5039 95.1387 70.6875C96.0527 72.8711 96.5605 75.3086 96.6621 78C96.6621 80.5898 96.1797 83.002 95.2148 85.2363C94.25 87.4707 92.9043 89.4512 91.1777 91.1777C89.4512 92.9043 87.4961 94.2246 85.3125 95.1387C83.1289 96.0527 80.6914 96.5605 78 96.6621C75.4102 96.6621 72.998 96.1797 70.7637 95.2148C68.5293 94.25 66.5488 92.9043 64.8223 91.1777C63.0957 89.4512 61.7754 87.4961 60.8613 85.3125C59.9473 83.1289 59.4395 80.6914 59.3379 78C59.3379 75.4102 59.8203 72.998 60.7852 70.7637C61.75 68.5293 63.0957 66.5488 64.8223 64.8223C66.5488 63.0957 68.5039 61.7754 70.6875 60.8613C72.8711 59.9473 75.3086 59.4395 78 59.3379ZM78 88.5879C79.4727 88.5879 80.8438 88.3086 82.1133 87.75C83.3828 87.1914 84.5 86.4551 85.4648 85.541C86.4297 84.627 87.1914 83.5098 87.75 82.1895C88.3086 80.8691 88.5879 79.4727 88.5879 78C88.5879 76.5273 88.3086 75.1562 87.75 73.8867C87.1914 72.6172 86.4551 71.5 85.541 70.5352C84.627 69.5703 83.5098 68.8086 82.1895 68.25C80.8691 67.6914 79.4727 67.4121 78 67.4121C76.5273 67.4121 75.1562 67.6914 73.8867 68.25C72.6172 68.8086 71.5 69.5449 70.5352 70.459C69.5703 71.373 68.8086 72.4902 68.25 73.8105C67.6914 75.1309 67.4121 76.5273 67.4121 78C67.4121 79.4727 67.6914 80.8438 68.25 82.1133C68.8086 83.3828 69.5449 84.5 70.459 85.4648C71.373 86.4297 72.4902 87.1914 73.8105 87.75C75.1309 88.3086 76.5273 88.5879 78 88.5879ZM132.539 23.4609C136.195 27.0664 139.42 30.9766 142.213 35.1914C145.006 39.4062 147.367 43.8242 149.297 48.4453C151.227 53.0664 152.674 57.8652 153.639 62.8418C154.604 67.8184 155.111 72.8711 155.162 78C155.162 83.1289 154.68 88.1816 153.715 93.1582C152.75 98.1348 151.277 102.934 149.297 107.555C147.316 112.176 144.955 116.594 142.213 120.809C139.471 125.023 136.246 128.934 132.539 132.539L126.826 126.826C130.076 123.576 132.945 120.072 135.434 116.314C137.922 112.557 140.029 108.596 141.756 104.432C143.482 100.268 144.777 95.9766 145.641 91.5586C146.504 87.1406 146.961 82.6211 147.012 78C147.012 73.4297 146.58 68.9355 145.717 64.5176C144.854 60.0996 143.559 55.7832 141.832 51.5684C140.105 47.3535 137.998 43.3926 135.51 39.6855C133.021 35.9785 130.127 32.4746 126.826 29.1738L132.539 23.4609ZM29.1738 29.1738C25.9238 32.4238 23.0547 35.9277 20.5664 39.6855C18.0781 43.4434 15.9453 47.4043 14.168 51.5684C12.3906 55.7324 11.0957 60.0234 10.2832 64.4414C9.4707 68.8594 9.01367 73.3789 8.91211 78C8.91211 82.5703 9.34375 87.0645 10.207 91.4824C11.0703 95.9004 12.3906 100.217 14.168 104.432C15.9453 108.646 18.0527 112.607 20.4902 116.314C22.9277 120.021 25.8223 123.525 29.1738 126.826L23.4609 132.539C19.8047 128.934 16.5801 125.023 13.7871 120.809C10.9941 116.594 8.63281 112.176 6.70312 107.555C4.77344 102.934 3.32617 98.1348 2.36133 93.1582C1.39648 88.1816 0.888672 83.1289 0.837891 78C0.837891 72.8711 1.32031 67.8184 2.28516 62.8418C3.25 57.8652 4.72266 53.0664 6.70312 48.4453C8.68359 43.8242 11.0449 39.4062 13.7871 35.1914C16.5293 30.9766 19.7539 27.0664 23.4609 23.4609L29.1738 29.1738ZM111.896 44.1035C116.416 48.6738 119.869 53.8535 122.256 59.6426C124.643 65.4316 125.861 71.5508 125.912 78C125.912 84.3984 124.719 90.4922 122.332 96.2812C119.945 102.07 116.467 107.275 111.896 111.896L106.184 106.184C109.941 102.426 112.811 98.1348 114.791 93.3105C116.771 88.4863 117.787 83.3828 117.838 78C117.838 72.668 116.848 67.5898 114.867 62.7656C112.887 57.9414 109.992 53.625 106.184 49.8164L111.896 44.1035ZM49.8164 49.8164C46.0586 53.5742 43.1895 57.8652 41.209 62.6895C39.2285 67.5137 38.2129 72.6172 38.1621 78C38.1621 83.332 39.1523 88.4102 41.1328 93.2344C43.1133 98.0586 46.0078 102.375 49.8164 106.184L44.1035 111.896C39.584 107.326 36.1309 102.146 33.7441 96.3574C31.3574 90.5684 30.1387 84.4492 30.0879 78C30.0879 71.6016 31.2812 65.5078 33.668 59.7188C36.0547 53.9297 39.5332 48.7246 44.1035 44.1035L49.8164 49.8164Z" fill="#64C88A"/>
</svg>
