<svg width="192" height="36" viewBox="0 0 192 36" fill="none" xmlns="http://www.w3.org/2000/svg">
<path d="M44.1894 10.993C43.2825 8.84925 41.9851 6.92466 40.3323 5.27189C38.6795 3.61913 36.7543 2.32114 34.6112 1.41484C32.3912 0.475851 30.0337 0 27.6042 0C25.9641 0 24.3568 0.217338 22.8021 0.647178C21.2474 0.217338 19.64 0 18 0C15.5705 0 13.213 0.475851 10.993 1.41484C8.84925 2.32174 6.92466 3.61913 5.27189 5.27189C3.61913 6.92466 2.32114 8.84986 1.41484 10.993C0.475851 13.213 0 15.5705 0 18C0 20.4295 0.475851 22.787 1.41484 25.007C2.32174 27.1507 3.61913 29.0753 5.27189 30.7281C6.92466 32.3809 8.84986 33.6789 10.993 34.5852C13.213 35.5241 15.5705 36 18 36C19.64 36 21.2474 35.7827 22.8021 35.3528C24.3568 35.7827 25.9641 36 27.6042 36C30.0337 36 32.3912 35.5241 34.6112 34.5852C36.7549 33.6783 38.6795 32.3809 40.3323 30.7281C41.9851 29.0753 43.2831 27.1501 44.1894 25.007C45.1283 22.787 45.6042 20.4295 45.6042 18C45.6042 15.5705 45.1283 13.213 44.1894 10.993ZM29.3756 28.4778C27.2161 25.7529 26.0404 22.3916 26.0404 18.8803C26.0404 14.996 27.5164 11.2455 30.1287 8.40307C32.2216 11.0427 33.473 14.3778 33.473 18C33.473 22.0381 31.9183 25.719 29.3762 28.4772L29.3756 28.4778ZM26.9237 8.33526C26.2051 9.32813 25.587 10.3961 25.0863 11.5112C24.0426 13.8348 23.5134 16.3139 23.5134 18.8803C23.5134 23.0297 24.9253 26.9988 27.514 30.1953C26.1155 31.2887 24.5251 32.1472 22.8021 32.7108C16.6136 30.6857 12.1312 24.8569 12.1312 18.0006C12.1312 11.1444 16.6136 5.31548 22.8021 3.29039C24.8998 3.97693 26.8014 5.09996 28.3985 6.55233C27.8694 7.11536 27.376 7.71169 26.9237 8.33586V8.33526ZM2.52637 18C2.52637 9.46798 9.46737 2.52697 17.9994 2.52697C18.1302 2.52697 18.2603 2.52879 18.3899 2.53181C17.1149 3.2916 15.9386 4.20819 14.8749 5.27189C13.2221 6.92466 11.9241 8.84986 11.0178 10.993C10.0788 13.213 9.60299 15.5705 9.60299 18C9.60299 20.4295 10.0788 22.787 11.0178 25.007C11.9247 27.1507 13.2221 29.0753 14.8749 30.7281C15.9386 31.7918 17.1149 32.7078 18.3899 33.4682C18.2597 33.4712 18.1296 33.473 17.9994 33.473C9.46737 33.473 2.52637 26.532 2.52637 18ZM27.6036 33.4736C27.4728 33.4736 27.3427 33.4718 27.2131 33.4688C28.4881 32.709 29.6644 31.7924 30.7281 30.7287C32.3809 29.0759 33.6789 27.1507 34.5852 25.0076C35.5241 22.7876 36 20.4301 36 18.0006C36 15.5711 35.5241 13.2136 34.5852 10.9936C33.6783 8.84986 32.3809 6.92526 30.7281 5.2725C29.6644 4.2088 28.4881 3.29221 27.2131 2.53242C27.3433 2.52939 27.4734 2.52758 27.6036 2.52758C36.1356 2.52758 43.0766 9.46858 43.0766 18.0006C43.0766 26.5326 36.1356 33.4736 27.6036 33.4736Z" fill="#64C88A"/>
<path d="M60.7569 27.5695C59.1544 26.6753 57.8867 25.427 56.9532 23.8244C56.019 22.2225 55.5522 20.4184 55.5522 18.4133C55.5522 16.4082 56.019 14.6095 56.9532 13.0173C57.8867 11.4251 59.1544 10.1822 60.7569 9.28739C62.3589 8.3932 64.1133 7.9458 66.0204 7.9458C67.9274 7.9458 69.7109 8.3932 71.3134 9.28739C72.9154 10.1822 74.1782 11.4251 75.1027 13.0173C76.0265 14.6095 76.4885 16.4082 76.4885 18.4133C76.4885 20.4184 76.0265 22.2225 75.1027 23.8244C74.1782 25.427 72.9154 26.6747 71.3134 27.5695C69.7109 28.4643 67.9468 28.9111 66.0204 28.9111C64.0939 28.9111 62.3589 28.4643 60.7569 27.5695ZM69.6474 25.0631C70.7092 24.4438 71.5393 23.5593 72.1392 22.409C72.7386 21.2587 73.0389 19.9274 73.0389 18.4133C73.0389 16.8992 72.7392 15.5727 72.1392 14.4328C71.5393 13.2928 70.7092 12.418 69.6474 11.8083C68.5855 11.1993 67.3771 10.8941 66.0204 10.8941C64.6636 10.8941 63.4552 11.1993 62.3934 11.8083C61.3315 12.418 60.5009 13.2928 59.9015 14.4328C59.3015 15.5733 59.0019 16.8998 59.0019 18.4133C59.0019 19.9268 59.3015 21.2587 59.9015 22.409C60.5009 23.5593 61.3315 24.4438 62.3934 25.0631C63.4552 25.6825 64.6636 25.9918 66.0204 25.9918C67.3771 25.9918 68.5861 25.6819 69.6474 25.0631Z" fill="white"/>
<path d="M80.3211 8.2113H83.9778L80.8817 15.2292H78.5225L80.3211 8.2113Z" fill="white"/>
<path d="M89.9634 28.1888C88.8622 27.7075 87.9977 27.024 87.3686 26.1395C86.739 25.255 86.4248 24.2228 86.4248 23.0435H90.0221C90.1002 23.928 90.4496 24.6557 91.0689 25.2254C91.6882 25.7957 92.5582 26.0802 93.6788 26.0802C94.7994 26.0802 95.7426 25.7999 96.3916 25.2399C97.0406 24.6799 97.3645 23.957 97.3645 23.0725C97.3645 22.3848 97.1629 21.8242 96.7603 21.3919C96.3571 20.9597 95.8558 20.6255 95.2565 20.3894C94.6565 20.1532 93.8265 19.8984 92.7646 19.6229C91.4279 19.2694 90.3418 18.9103 89.5063 18.5465C88.6703 18.1833 87.9583 17.6178 87.3686 16.8507C86.779 16.0843 86.4841 15.0624 86.4841 13.7844C86.4841 12.605 86.779 11.5728 87.3686 10.6883C87.9583 9.8038 88.7841 9.12575 89.8454 8.65353C90.9066 8.18191 92.135 7.9458 93.5311 7.9458C95.5162 7.9458 97.1436 8.44223 98.4113 9.4351C99.679 10.428 100.382 11.7895 100.52 13.5192H96.8045C96.7458 12.7721 96.3916 12.1334 95.7432 11.6025C95.0942 11.0715 94.2394 10.8064 93.1775 10.8064C92.2143 10.8064 91.4279 11.0522 90.8183 11.5437C90.2086 12.0353 89.9041 12.7431 89.9041 13.6669C89.9041 14.2965 90.096 14.8123 90.4792 15.2149C90.8624 15.6181 91.3492 15.9372 91.9389 16.1733C92.5285 16.4094 93.3343 16.6649 94.3569 16.9397C95.7136 17.3133 96.8191 17.6868 97.6739 18.0604C98.5287 18.4339 99.2558 19.009 99.8558 19.7852C100.455 20.5619 100.755 21.5984 100.755 22.8964C100.755 23.9383 100.475 24.9215 99.9151 25.8453C99.3551 26.7698 98.539 27.5114 97.4674 28.0714C96.3959 28.6314 95.133 28.9117 93.6782 28.9117C92.3021 28.9117 91.0634 28.6713 89.9628 28.1894L89.9634 28.1888Z" fill="white"/>
<path d="M108.658 15.1997V24.1937C108.658 24.8033 108.8 25.2404 109.085 25.5056C109.37 25.7708 109.857 25.904 110.545 25.904H112.609V28.7052H109.955C108.44 28.7052 107.281 28.3516 106.475 27.6439C105.669 26.9362 105.266 25.7859 105.266 24.1937V15.1997H103.35V12.4572H105.266V8.41736H108.657V12.4572H112.609V15.1997H108.657H108.658Z" fill="white"/>
<path d="M121.028 12.8851C121.844 12.4232 122.812 12.1919 123.933 12.1919V15.6712H123.078C121.761 15.6712 120.763 16.0054 120.085 16.6737C119.407 17.3421 119.068 18.5021 119.068 20.153V28.7044H115.706V12.4571H119.068V14.8163C119.559 13.9906 120.213 13.347 121.029 12.8851H121.028Z" fill="white"/>
<path d="M141.802 21.8348H129.388C129.486 23.1322 129.967 24.1747 130.833 24.9606C131.698 25.747 132.759 26.1399 134.018 26.1399C135.826 26.1399 137.103 25.3831 137.851 23.8696H141.478C140.986 25.3638 140.096 26.5873 138.809 27.5408C137.522 28.4943 135.924 28.9708 134.018 28.9708C132.464 28.9708 131.073 28.6221 129.845 27.924C128.616 27.2266 127.653 26.2434 126.955 24.9751C126.257 23.7074 125.909 22.238 125.909 20.5665C125.909 18.895 126.248 17.4263 126.926 16.1579C127.604 14.8896 128.557 13.9125 129.786 13.2241C131.015 12.5364 132.425 12.1919 134.018 12.1919C135.61 12.1919 136.917 12.5267 138.116 13.1945C139.315 13.8628 140.249 14.8012 140.917 16.0102C141.586 17.2192 141.92 18.6104 141.92 20.1827C141.92 20.7923 141.881 21.3426 141.802 21.8342V21.8348ZM138.411 19.122C138.391 17.8833 137.949 16.8911 137.084 16.144C136.219 15.3969 135.147 15.0234 133.87 15.0234C132.71 15.0234 131.717 15.3921 130.892 16.1295C130.067 16.8669 129.574 17.8646 129.418 19.1226H138.411V19.122Z" fill="white"/>
<path d="M145.119 16.1725C145.797 14.9144 146.72 13.9367 147.89 13.2386C149.06 12.5412 150.352 12.1919 151.768 12.1919C153.045 12.1919 154.161 12.4425 155.114 12.9438C156.068 13.4451 156.83 14.0693 157.4 14.8163V12.4571H160.791V28.7044H157.4V26.2864C156.83 27.0529 156.053 27.6922 155.07 28.2031C154.087 28.7141 152.966 28.9696 151.708 28.9696C150.312 28.9696 149.035 28.6112 147.875 27.8932C146.715 27.1758 145.796 26.1732 145.118 24.8855C144.44 23.5984 144.101 22.1388 144.101 20.5066C144.101 18.8744 144.44 17.4305 145.118 16.1718L145.119 16.1725ZM156.707 17.6472C156.245 16.8215 155.641 16.1924 154.894 15.7602C154.147 15.3279 153.341 15.1112 152.476 15.1112C151.612 15.1112 150.805 15.3225 150.058 15.745C149.311 16.1682 148.706 16.7869 148.244 17.603C147.782 18.4191 147.551 19.3872 147.551 20.5078C147.551 21.6284 147.782 22.6116 148.244 23.4567C148.706 24.3019 149.315 24.946 150.073 25.388C150.829 25.8305 151.63 26.0515 152.476 26.0515C153.322 26.0515 154.146 25.8354 154.894 25.4025C155.641 24.9702 156.245 24.3364 156.707 23.5003C157.169 22.6649 157.4 21.6871 157.4 20.5665C157.4 19.4459 157.169 18.473 156.707 17.6472Z" fill="white"/>
<path d="M188.318 12.9885C189.33 13.5194 190.126 14.3059 190.706 15.3478C191.286 16.3897 191.576 17.6477 191.576 19.1219V28.7055H188.244V19.6232C188.244 18.1684 187.88 17.0532 187.153 16.2765C186.425 15.5003 185.432 15.1117 184.175 15.1117C182.918 15.1117 181.919 15.5003 181.182 16.2765C180.444 17.0532 180.076 18.169 180.076 19.6232V28.7055H176.744V19.6232C176.744 18.1684 176.38 17.0532 175.653 16.2765C174.926 15.5003 173.933 15.1117 172.675 15.1117C171.418 15.1117 170.42 15.5003 169.682 16.2765C168.945 17.0532 168.577 18.169 168.577 19.6232V28.7055H165.215V12.4582H168.577V14.3162C169.127 13.6478 169.825 13.1271 170.67 12.7536C171.515 12.3807 172.42 12.1936 173.383 12.1936C174.68 12.1936 175.84 12.4691 176.862 13.0194C177.884 13.5697 178.671 14.3664 179.222 15.4077C179.713 14.4251 180.48 13.6436 181.522 13.0636C182.563 12.4842 183.684 12.1936 184.883 12.1936C186.161 12.1936 187.306 12.4588 188.318 12.9897L188.318 12.9885Z" fill="white"/>
</svg>
